<svg width="32" height="32" viewBox="0 0 32 32" fill="none" xmlns="http://www.w3.org/2000/svg">
<rect width="32" height="32" rx="6" fill="#111111"/>
<path d="M19.0611 12.9695C18.9898 12.3028 18.6896 11.7837 18.1603 11.4122C17.6361 11.0407 16.9542 10.855 16.1145 10.855C15.5242 10.855 15.0178 10.944 14.5954 11.1221C14.173 11.3003 13.8499 11.542 13.626 11.8473C13.402 12.1527 13.2875 12.5013 13.2824 12.8931C13.2824 13.2188 13.3562 13.5013 13.5038 13.7405C13.6565 13.9796 13.8626 14.1832 14.1221 14.3511C14.3817 14.514 14.6692 14.6514 14.9847 14.7634C15.3003 14.8753 15.6183 14.9695 15.9389 15.0458L17.4046 15.4122C17.9949 15.5496 18.5623 15.7354 19.1069 15.9695C19.6565 16.2036 20.1476 16.4987 20.5802 16.855C21.0178 17.2112 21.3639 17.6412 21.6183 18.145C21.8728 18.6489 22 19.2392 22 19.916C22 20.8321 21.7659 21.6387 21.2977 22.3359C20.8295 23.028 20.1527 23.57 19.2672 23.9618C18.3868 24.3486 17.3206 24.542 16.0687 24.542C14.8524 24.542 13.7964 24.3537 12.9008 23.9771C12.0102 23.6005 11.313 23.0509 10.8092 22.3282C10.3104 21.6056 10.0407 20.7252 10 19.687H12.7863C12.827 20.2316 12.9949 20.6845 13.2901 21.0458C13.5852 21.4071 13.9695 21.6768 14.4427 21.855C14.9211 22.0331 15.4555 22.1221 16.0458 22.1221C16.6616 22.1221 17.201 22.0305 17.6641 21.8473C18.1323 21.659 18.4987 21.3995 18.7634 21.0687C19.028 20.7328 19.1629 20.341 19.1679 19.8931C19.1629 19.486 19.0433 19.1501 18.8092 18.8855C18.5751 18.6158 18.2468 18.3919 17.8244 18.2137C17.4071 18.0305 16.9186 17.8677 16.3588 17.7252L14.5802 17.2672C13.2926 16.9364 12.2748 16.4351 11.5267 15.7634C10.7837 15.0865 10.4122 14.1883 10.4122 13.0687C10.4122 12.1476 10.6616 11.341 11.1603 10.6489C11.6641 9.95674 12.3486 9.41985 13.2137 9.03817C14.0789 8.6514 15.0585 8.45801 16.1527 8.45801C17.2621 8.45801 18.2341 8.6514 19.0687 9.03817C19.9084 9.41985 20.5674 9.95165 21.0458 10.6336C21.5242 11.3104 21.771 12.0891 21.7863 12.9695H19.0611Z" fill="#F5F5F5"/>
</svg>
